<svg width="130" height="130" viewBox="0 0 130 130" fill="none" xmlns="http://www.w3.org/2000/svg">
<path d="M95.873 79.5526C95.873 85.1806 97.4743 87.4251 101.662 87.4251C110.995 87.4251 116.938 75.5326 116.938 55.7542C116.938 25.5238 94.9082 11.0518 67.4047 11.0518C39.1106 11.0518 13.3759 30.0262 13.3759 65.8846C13.3759 100.135 35.8879 118.788 70.4599 118.788C82.1983 118.788 90.0775 117.501 102.131 113.481L104.717 124.248C92.8178 128.114 80.1012 129.233 70.2991 129.233C24.9535 129.233 0.666016 104.309 0.666016 65.8779C0.666016 27.1251 28.8127 0.753906 67.5655 0.753906C107.926 0.753906 129.306 24.8739 129.306 54.4611C129.306 79.5459 121.434 98.6811 96.6703 98.6811C85.4076 98.6811 78.0175 94.1787 77.0527 84.2024C74.1583 95.2976 66.4399 98.6811 55.9812 98.6811C41.9916 98.6811 30.2532 87.9008 30.2532 66.1995C30.2532 44.3307 40.5511 30.8235 59.0431 30.8235C68.8519 30.8235 74.9623 34.6827 77.6825 40.7931L82.3524 32.2707H95.8596V79.5526H95.873ZM76.1013 58.327C76.1013 49.4897 69.5018 45.7846 64.0346 45.7846C58.085 45.7846 51.4989 50.6019 51.4989 64.759C51.4989 76.015 56.4837 82.2862 64.0346 82.2862C69.341 82.2862 76.1013 78.9094 76.1013 69.583V58.327Z" fill="#ED254E"/>
</svg>
