<svg width="76" height="127" viewBox="0 0 76 127" fill="none" xmlns="http://www.w3.org/2000/svg">
<path d="M63.3333 0H12.6667C9.30726 0 6.08544 1.33803 3.70998 3.71974C1.33452 6.10146 0 9.33175 0 12.7V114.3C0 117.668 1.33452 120.899 3.70998 123.28C6.08544 125.662 9.30726 127 12.6667 127H63.3333C66.6927 127 69.9146 125.662 72.29 123.28C74.6655 120.899 76 117.668 76 114.3V12.7C76 9.33175 74.6655 6.10146 72.29 3.71974C69.9146 1.33803 66.6927 0 63.3333 0ZM44.3333 120.65H31.6667V114.3H44.3333V120.65ZM63.3333 107.95H12.6667V19.05H63.3333V107.95Z" fill="black"/>
</svg>
