<svg width="200" height="199" viewBox="0 0 200 199" fill="none" xmlns="http://www.w3.org/2000/svg">
<path d="M200 100C200 44.7563 155.206 0 100 0C44.7563 0 0 44.7563 0 100C0 149.9 36.5563 191.275 84.375 198.769V128.912H58.9813V100.006H84.375V77.9625C84.375 52.9062 99.2812 39.0687 122.131 39.0687C133.075 39.0687 144.531 41.0188 144.531 41.0188V65.625H131.9C119.5 65.625 115.625 73.3438 115.625 81.25V100H143.356L138.9 128.906H115.625V198.762C163.406 191.269 200 149.894 200 99.9937V100Z" fill="#2A266F"/>
</svg>
